<mxfile host="65bd71144e">
    <diagram id="fIS9BnVsP2f9tIxZZb2J" name="Page-1">
        <mxGraphModel dx="591" dy="1431" grid="1" gridSize="10" guides="1" tooltips="1" connect="1" arrows="1" fold="1" page="1" pageScale="1" pageWidth="850" pageHeight="1100" background="none" math="0" shadow="0">
            <root>
                <mxCell id="0"/>
                <mxCell id="1" parent="0"/>
                <mxCell id="YmsS6SR4RIg1UxmrHryh-32" value="" style="rounded=0;whiteSpace=wrap;html=1;fontSize=9;fillColor=#000000;" vertex="1" parent="1">
                    <mxGeometry x="548.75" y="-780" width="640" height="1580" as="geometry"/>
                </mxCell>
                <mxCell id="YmsS6SR4RIg1UxmrHryh-58" style="edgeStyle=none;html=1;exitX=1;exitY=0.3333333333333333;exitDx=0;exitDy=0;exitPerimeter=0;entryX=0;entryY=0.5;entryDx=0;entryDy=0;endArrow=none;endFill=0;" edge="1" parent="1" source="YmsS6SR4RIg1UxmrHryh-35" target="YmsS6SR4RIg1UxmrHryh-39">
                    <mxGeometry relative="1" as="geometry"/>
                </mxCell>
                <mxCell id="YmsS6SR4RIg1UxmrHryh-59" style="edgeStyle=none;html=1;exitX=1;exitY=0.3333333333333333;exitDx=0;exitDy=0;exitPerimeter=0;entryX=0;entryY=0.5;entryDx=0;entryDy=0;endArrow=none;endFill=0;" edge="1" parent="1" source="YmsS6SR4RIg1UxmrHryh-35" target="YmsS6SR4RIg1UxmrHryh-56">
                    <mxGeometry relative="1" as="geometry"/>
                </mxCell>
                <mxCell id="YmsS6SR4RIg1UxmrHryh-60" style="edgeStyle=none;html=1;exitX=1;exitY=0.3333333333333333;exitDx=0;exitDy=0;exitPerimeter=0;entryX=0;entryY=0.5;entryDx=0;entryDy=0;endArrow=none;endFill=0;" edge="1" parent="1" source="YmsS6SR4RIg1UxmrHryh-35" target="YmsS6SR4RIg1UxmrHryh-54">
                    <mxGeometry relative="1" as="geometry"/>
                </mxCell>
                <mxCell id="YmsS6SR4RIg1UxmrHryh-35" value="&lt;div style=&quot;text-align: start;&quot;&gt;&lt;font face=&quot;Nunito Sans, sans-serif&quot; color=&quot;#000000&quot;&gt;&lt;span style=&quot;font-size: 14px; background-color: rgb(255, 255, 255);&quot;&gt;&lt;b&gt;utilisateur&lt;/b&gt;&lt;/span&gt;&lt;/font&gt;&lt;/div&gt;" style="shape=umlActor;verticalLabelPosition=bottom;verticalAlign=top;html=1;outlineConnect=0;" vertex="1" parent="1">
                    <mxGeometry x="450" y="-650" width="60" height="90" as="geometry"/>
                </mxCell>
                <mxCell id="YmsS6SR4RIg1UxmrHryh-87" style="edgeStyle=none;html=1;exitX=1;exitY=0.3333333333333333;exitDx=0;exitDy=0;exitPerimeter=0;entryX=0;entryY=0.5;entryDx=0;entryDy=0;endArrow=none;endFill=0;" edge="1" parent="1" source="YmsS6SR4RIg1UxmrHryh-36" target="YmsS6SR4RIg1UxmrHryh-61">
                    <mxGeometry relative="1" as="geometry"/>
                </mxCell>
                <mxCell id="YmsS6SR4RIg1UxmrHryh-88" style="edgeStyle=none;html=1;exitX=1;exitY=0.3333333333333333;exitDx=0;exitDy=0;exitPerimeter=0;entryX=0;entryY=0.5;entryDx=0;entryDy=0;endArrow=none;endFill=0;" edge="1" parent="1" source="YmsS6SR4RIg1UxmrHryh-36" target="YmsS6SR4RIg1UxmrHryh-67">
                    <mxGeometry relative="1" as="geometry"/>
                </mxCell>
                <mxCell id="YmsS6SR4RIg1UxmrHryh-89" style="edgeStyle=none;html=1;exitX=1;exitY=0.3333333333333333;exitDx=0;exitDy=0;exitPerimeter=0;entryX=0;entryY=0.5;entryDx=0;entryDy=0;endArrow=none;endFill=0;" edge="1" parent="1" source="YmsS6SR4RIg1UxmrHryh-36" target="YmsS6SR4RIg1UxmrHryh-71">
                    <mxGeometry relative="1" as="geometry"/>
                </mxCell>
                <mxCell id="YmsS6SR4RIg1UxmrHryh-90" style="edgeStyle=none;html=1;exitX=1;exitY=0.3333333333333333;exitDx=0;exitDy=0;exitPerimeter=0;entryX=0;entryY=0.5;entryDx=0;entryDy=0;endArrow=none;endFill=0;" edge="1" parent="1" source="YmsS6SR4RIg1UxmrHryh-36" target="YmsS6SR4RIg1UxmrHryh-72">
                    <mxGeometry relative="1" as="geometry"/>
                </mxCell>
                <mxCell id="YmsS6SR4RIg1UxmrHryh-91" style="edgeStyle=none;html=1;exitX=1;exitY=0.3333333333333333;exitDx=0;exitDy=0;exitPerimeter=0;entryX=0;entryY=0.5;entryDx=0;entryDy=0;endArrow=none;endFill=0;" edge="1" parent="1" source="YmsS6SR4RIg1UxmrHryh-36" target="YmsS6SR4RIg1UxmrHryh-81">
                    <mxGeometry relative="1" as="geometry"/>
                </mxCell>
                <mxCell id="YmsS6SR4RIg1UxmrHryh-36" value="&lt;div style=&quot;text-align: start;&quot;&gt;&lt;span style=&quot;box-sizing: border-box; border: 0px solid; --tw-border-spacing-x: 0; --tw-border-spacing-y: 0; --tw-translate-x: 0; --tw-translate-y: 0; --tw-rotate: 0; --tw-skew-x: 0; --tw-skew-y: 0; --tw-scale-x: 1; --tw-scale-y: 1; --tw-pan-x: ; --tw-pan-y: ; --tw-pinch-zoom: ; --tw-scroll-snap-strictness: proximity; --tw-gradient-from-position: ; --tw-gradient-via-position: ; --tw-gradient-to-position: ; --tw-ordinal: ; --tw-slashed-zero: ; --tw-numeric-figure: ; --tw-numeric-spacing: ; --tw-numeric-fraction: ; --tw-ring-inset: ; --tw-ring-offset-width: 0px; --tw-ring-offset-color: #fff; --tw-ring-color: rgba(59,130,246,.5); --tw-ring-offset-shadow: 0 0 #0000; --tw-ring-shadow: 0 0 #0000; --tw-shadow: 0 0 #0000; --tw-shadow-colored: 0 0 #0000; --tw-blur: ; --tw-brightness: ; --tw-contrast: ; --tw-grayscale: ; --tw-hue-rotate: ; --tw-invert: ; --tw-saturate: ; --tw-sepia: ; --tw-drop-shadow: ; --tw-backdrop-blur: ; --tw-backdrop-brightness: ; --tw-backdrop-contrast: ; --tw-backdrop-grayscale: ; --tw-backdrop-hue-rotate: ; --tw-backdrop-invert: ; --tw-backdrop-opacity: ; --tw-backdrop-saturate: ; --tw-backdrop-sepia: ; --tw-contain-size: ; --tw-contain-layout: ; --tw-contain-paint: ; --tw-contain-style: ; font-weight: bolder; color: rgb(0, 0, 0); font-family: &amp;quot;Nunito Sans&amp;quot;, sans-serif; font-size: 14px; background-color: rgb(255, 255, 255);&quot;&gt;administrateur&lt;/span&gt;&lt;br&gt;&lt;/div&gt;" style="shape=umlActor;verticalLabelPosition=bottom;verticalAlign=top;html=1;outlineConnect=0;" vertex="1" parent="1">
                    <mxGeometry x="450" y="380" width="60" height="90" as="geometry"/>
                </mxCell>
                <mxCell id="YmsS6SR4RIg1UxmrHryh-99" style="edgeStyle=none;html=1;exitX=1;exitY=0.3333333333333333;exitDx=0;exitDy=0;exitPerimeter=0;entryX=0;entryY=0.5;entryDx=0;entryDy=0;endArrow=none;endFill=0;" edge="1" parent="1" source="YmsS6SR4RIg1UxmrHryh-37" target="YmsS6SR4RIg1UxmrHryh-92">
                    <mxGeometry relative="1" as="geometry"/>
                </mxCell>
                <mxCell id="YmsS6SR4RIg1UxmrHryh-100" style="edgeStyle=none;html=1;exitX=1;exitY=0.3333333333333333;exitDx=0;exitDy=0;exitPerimeter=0;entryX=0;entryY=0.5;entryDx=0;entryDy=0;endArrow=none;endFill=0;" edge="1" parent="1" source="YmsS6SR4RIg1UxmrHryh-37" target="YmsS6SR4RIg1UxmrHryh-95">
                    <mxGeometry relative="1" as="geometry"/>
                </mxCell>
                <mxCell id="YmsS6SR4RIg1UxmrHryh-37" value="&lt;div style=&quot;text-align: start;&quot;&gt;&lt;span style=&quot;box-sizing: border-box; border: 0px solid; --tw-border-spacing-x: 0; --tw-border-spacing-y: 0; --tw-translate-x: 0; --tw-translate-y: 0; --tw-rotate: 0; --tw-skew-x: 0; --tw-skew-y: 0; --tw-scale-x: 1; --tw-scale-y: 1; --tw-pan-x: ; --tw-pan-y: ; --tw-pinch-zoom: ; --tw-scroll-snap-strictness: proximity; --tw-gradient-from-position: ; --tw-gradient-via-position: ; --tw-gradient-to-position: ; --tw-ordinal: ; --tw-slashed-zero: ; --tw-numeric-figure: ; --tw-numeric-spacing: ; --tw-numeric-fraction: ; --tw-ring-inset: ; --tw-ring-offset-width: 0px; --tw-ring-offset-color: #fff; --tw-ring-color: rgba(59,130,246,.5); --tw-ring-offset-shadow: 0 0 #0000; --tw-ring-shadow: 0 0 #0000; --tw-shadow: 0 0 #0000; --tw-shadow-colored: 0 0 #0000; --tw-blur: ; --tw-brightness: ; --tw-contrast: ; --tw-grayscale: ; --tw-hue-rotate: ; --tw-invert: ; --tw-saturate: ; --tw-sepia: ; --tw-drop-shadow: ; --tw-backdrop-blur: ; --tw-backdrop-brightness: ; --tw-backdrop-contrast: ; --tw-backdrop-grayscale: ; --tw-backdrop-hue-rotate: ; --tw-backdrop-invert: ; --tw-backdrop-opacity: ; --tw-backdrop-saturate: ; --tw-backdrop-sepia: ; --tw-contain-size: ; --tw-contain-layout: ; --tw-contain-paint: ; --tw-contain-style: ; font-weight: bolder; color: rgb(0, 0, 0); font-family: &amp;quot;Nunito Sans&amp;quot;, sans-serif; font-size: 14px; background-color: rgb(255, 255, 255);&quot;&gt;auteur&lt;/span&gt;&lt;br&gt;&lt;/div&gt;" style="shape=umlActor;verticalLabelPosition=bottom;verticalAlign=top;html=1;outlineConnect=0;" vertex="1" parent="1">
                    <mxGeometry x="450" y="-160" width="60" height="90" as="geometry"/>
                </mxCell>
                <mxCell id="YmsS6SR4RIg1UxmrHryh-38" value="&lt;b&gt;s'authentifier&lt;/b&gt;" style="ellipse;whiteSpace=wrap;html=1;align=center;" vertex="1" parent="1">
                    <mxGeometry x="1017.5" y="-270" width="135" height="40" as="geometry"/>
                </mxCell>
                <mxCell id="YmsS6SR4RIg1UxmrHryh-39" value="Consulter se profil." style="ellipse;whiteSpace=wrap;html=1;align=center;" vertex="1" parent="1">
                    <mxGeometry x="610" y="-730" width="100" height="40" as="geometry"/>
                </mxCell>
                <mxCell id="YmsS6SR4RIg1UxmrHryh-40" value="envoi d'un email lors de la crÃ©ation du compte." style="ellipse;whiteSpace=wrap;html=1;align=center;" vertex="1" parent="1">
                    <mxGeometry x="855" y="15" width="170" height="40" as="geometry"/>
                </mxCell>
                <mxCell id="YmsS6SR4RIg1UxmrHryh-42" value="Modification des informations personnelles" style="ellipse;whiteSpace=wrap;html=1;align=center;" vertex="1" parent="1">
                    <mxGeometry x="771.25" y="-750" width="172.5" height="40" as="geometry"/>
                </mxCell>
                <mxCell id="YmsS6SR4RIg1UxmrHryh-43" value="aimer l'article" style="ellipse;whiteSpace=wrap;html=1;align=center;" vertex="1" parent="1">
                    <mxGeometry x="802.5" y="-630" width="135" height="40" as="geometry"/>
                </mxCell>
                <mxCell id="YmsS6SR4RIg1UxmrHryh-44" value="commenter sur l'article" style="ellipse;whiteSpace=wrap;html=1;align=center;" vertex="1" parent="1">
                    <mxGeometry x="800" y="-580" width="140" height="40" as="geometry"/>
                </mxCell>
                <mxCell id="YmsS6SR4RIg1UxmrHryh-46" value="rechercher des article&lt;span style=&quot;color: rgb(0, 0, 0); font-family: &amp;quot;Nunito Sans&amp;quot;, sans-serif; font-size: 14px; text-align: left; background-color: rgb(255, 255, 255);&quot;&gt;&lt;br&gt;&lt;/span&gt;" style="ellipse;whiteSpace=wrap;html=1;align=center;" vertex="1" parent="1">
                    <mxGeometry x="771.25" y="-390" width="100" height="40" as="geometry"/>
                </mxCell>
                <mxCell id="YmsS6SR4RIg1UxmrHryh-47" value="Filtrage des articles par catÃ©gorie.&lt;span style=&quot;color: rgb(0, 0, 0); font-family: &amp;quot;Nunito Sans&amp;quot;, sans-serif; font-size: 14px; text-align: left; background-color: rgb(255, 255, 255);&quot;&gt;&lt;br&gt;&lt;/span&gt;" style="ellipse;whiteSpace=wrap;html=1;align=center;" vertex="1" parent="1">
                    <mxGeometry x="760" y="-450" width="120" height="40" as="geometry"/>
                </mxCell>
                <mxCell id="YmsS6SR4RIg1UxmrHryh-49" value="tÃ©lecharger l'article au format pdf&lt;span style=&quot;color: rgb(0, 0, 0); font-family: &amp;quot;Nunito Sans&amp;quot;, sans-serif; font-size: 14px; text-align: left; background-color: rgb(255, 255, 255);&quot;&gt;&lt;br&gt;&lt;/span&gt;" style="ellipse;whiteSpace=wrap;html=1;align=center;" vertex="1" parent="1">
                    <mxGeometry x="793.75" y="-528" width="150" height="40" as="geometry"/>
                </mxCell>
                <mxCell id="YmsS6SR4RIg1UxmrHryh-50" value="consultaion des favoris" style="ellipse;whiteSpace=wrap;html=1;align=center;" vertex="1" parent="1">
                    <mxGeometry x="771.25" y="-700" width="170" height="40" as="geometry"/>
                </mxCell>
                <mxCell id="YmsS6SR4RIg1UxmrHryh-54" value="cosulter la page des articles" style="ellipse;whiteSpace=wrap;html=1;align=center;" vertex="1" parent="1">
                    <mxGeometry x="610" y="-420" width="100" height="40" as="geometry"/>
                </mxCell>
                <mxCell id="YmsS6SR4RIg1UxmrHryh-56" value="cosulter un article specifique" style="ellipse;whiteSpace=wrap;html=1;align=center;" vertex="1" parent="1">
                    <mxGeometry x="620" y="-580" width="100" height="40" as="geometry"/>
                </mxCell>
                <mxCell id="YmsS6SR4RIg1UxmrHryh-61" value="consultation des utilisateurs" style="ellipse;whiteSpace=wrap;html=1;align=center;" vertex="1" parent="1">
                    <mxGeometry x="610" y="160" width="130" height="40" as="geometry"/>
                </mxCell>
                <mxCell id="YmsS6SR4RIg1UxmrHryh-63" value="bannier un utilisateur&lt;span style=&quot;color: rgb(0, 0, 0); font-family: &amp;quot;Nunito Sans&amp;quot;, sans-serif; font-size: 14px; text-align: left; background-color: rgb(255, 255, 255);&quot;&gt;&lt;br&gt;&lt;/span&gt;" style="ellipse;whiteSpace=wrap;html=1;align=center;" vertex="1" parent="1">
                    <mxGeometry x="812.5" y="160" width="100" height="40" as="geometry"/>
                </mxCell>
                <mxCell id="YmsS6SR4RIg1UxmrHryh-67" value="consultation des articles" style="ellipse;whiteSpace=wrap;html=1;align=center;" vertex="1" parent="1">
                    <mxGeometry x="610" y="250" width="130" height="40" as="geometry"/>
                </mxCell>
                <mxCell id="YmsS6SR4RIg1UxmrHryh-68" value="accepter un article" style="ellipse;whiteSpace=wrap;html=1;align=center;" vertex="1" parent="1">
                    <mxGeometry x="815" y="230" width="100" height="40" as="geometry"/>
                </mxCell>
                <mxCell id="YmsS6SR4RIg1UxmrHryh-69" value="refuser un article" style="ellipse;whiteSpace=wrap;html=1;align=center;" vertex="1" parent="1">
                    <mxGeometry x="817.5" y="280" width="100" height="40" as="geometry"/>
                </mxCell>
                <mxCell id="YmsS6SR4RIg1UxmrHryh-70" value="supprimer un commentaire" style="ellipse;whiteSpace=wrap;html=1;align=center;" vertex="1" parent="1">
                    <mxGeometry x="812.5" y="350" width="100" height="40" as="geometry"/>
                </mxCell>
                <mxCell id="YmsS6SR4RIg1UxmrHryh-71" value="consultation des commentaires" style="ellipse;whiteSpace=wrap;html=1;align=center;" vertex="1" parent="1">
                    <mxGeometry x="610" y="350" width="130" height="40" as="geometry"/>
                </mxCell>
                <mxCell id="YmsS6SR4RIg1UxmrHryh-72" value="consultation des categories" style="ellipse;whiteSpace=wrap;html=1;align=center;" vertex="1" parent="1">
                    <mxGeometry x="615" y="440" width="130" height="40" as="geometry"/>
                </mxCell>
                <mxCell id="YmsS6SR4RIg1UxmrHryh-73" value="supprimer une categorie" style="ellipse;whiteSpace=wrap;html=1;align=center;" vertex="1" parent="1">
                    <mxGeometry x="820" y="410" width="100" height="40" as="geometry"/>
                </mxCell>
                <mxCell id="YmsS6SR4RIg1UxmrHryh-74" value="modifier une categorie" style="ellipse;whiteSpace=wrap;html=1;align=center;" vertex="1" parent="1">
                    <mxGeometry x="818.75" y="460" width="100" height="40" as="geometry"/>
                </mxCell>
                <mxCell id="YmsS6SR4RIg1UxmrHryh-75" value="ajouter une categorie" style="ellipse;whiteSpace=wrap;html=1;align=center;" vertex="1" parent="1">
                    <mxGeometry x="820" y="510" width="100" height="40" as="geometry"/>
                </mxCell>
                <mxCell id="YmsS6SR4RIg1UxmrHryh-81" value="consultation des tags" style="ellipse;whiteSpace=wrap;html=1;align=center;" vertex="1" parent="1">
                    <mxGeometry x="610" y="620" width="130" height="40" as="geometry"/>
                </mxCell>
                <mxCell id="YmsS6SR4RIg1UxmrHryh-82" value="supprimer une tag" style="ellipse;whiteSpace=wrap;html=1;align=center;" vertex="1" parent="1">
                    <mxGeometry x="815" y="590" width="100" height="40" as="geometry"/>
                </mxCell>
                <mxCell id="YmsS6SR4RIg1UxmrHryh-83" value="modifier une tag" style="ellipse;whiteSpace=wrap;html=1;align=center;" vertex="1" parent="1">
                    <mxGeometry x="813.75" y="640" width="100" height="40" as="geometry"/>
                </mxCell>
                <mxCell id="YmsS6SR4RIg1UxmrHryh-84" value="ajouter une tag" style="ellipse;whiteSpace=wrap;html=1;align=center;" vertex="1" parent="1">
                    <mxGeometry x="815" y="690" width="100" height="40" as="geometry"/>
                </mxCell>
                <mxCell id="YmsS6SR4RIg1UxmrHryh-92" value="consultation de ses articles" style="ellipse;whiteSpace=wrap;html=1;align=center;" vertex="1" parent="1">
                    <mxGeometry x="615" y="-160" width="130" height="40" as="geometry"/>
                </mxCell>
                <mxCell id="YmsS6SR4RIg1UxmrHryh-93" value="supprimer un article" style="ellipse;whiteSpace=wrap;html=1;align=center;" vertex="1" parent="1">
                    <mxGeometry x="795" y="-190" width="100" height="40" as="geometry"/>
                </mxCell>
                <mxCell id="YmsS6SR4RIg1UxmrHryh-94" value="modifier un article" style="ellipse;whiteSpace=wrap;html=1;align=center;" vertex="1" parent="1">
                    <mxGeometry x="793.75" y="-130" width="100" height="40" as="geometry"/>
                </mxCell>
                <mxCell id="YmsS6SR4RIg1UxmrHryh-95" value="crÃ©er un article" style="ellipse;whiteSpace=wrap;html=1;align=center;" vertex="1" parent="1">
                    <mxGeometry x="625" y="-50" width="100" height="40" as="geometry"/>
                </mxCell>
                <mxCell id="YmsS6SR4RIg1UxmrHryh-106" style="edgeStyle=none;html=1;exitX=0;exitY=0.5;exitDx=0;exitDy=0;entryX=1;entryY=0.5;entryDx=0;entryDy=0;endArrow=none;endFill=0;" edge="1" parent="1" source="YmsS6SR4RIg1UxmrHryh-104" target="YmsS6SR4RIg1UxmrHryh-40">
                    <mxGeometry relative="1" as="geometry"/>
                </mxCell>
                <mxCell id="YmsS6SR4RIg1UxmrHryh-104" value="&amp;lt;&amp;lt;secondaire&amp;gt;&amp;gt;&lt;div&gt;Systeme&lt;/div&gt;" style="rounded=0;whiteSpace=wrap;html=1;" vertex="1" parent="1">
                    <mxGeometry x="1210" y="10" width="90" height="50" as="geometry"/>
                </mxCell>
                <mxCell id="YmsS6SR4RIg1UxmrHryh-108" value="rechercher par mot-clÃ©&lt;span style=&quot;color: rgb(0, 0, 0); font-family: &amp;quot;Nunito Sans&amp;quot;, sans-serif; font-size: 14px; text-align: left; background-color: rgb(255, 255, 255);&quot;&gt;&lt;br&gt;&lt;/span&gt;" style="ellipse;whiteSpace=wrap;html=1;align=center;" vertex="1" parent="1">
                    <mxGeometry x="900" y="-415" width="100" height="40" as="geometry"/>
                </mxCell>
                <mxCell id="YmsS6SR4RIg1UxmrHryh-109" value="rechercher par nom de l'auteur&lt;span style=&quot;color: rgb(0, 0, 0); font-family: &amp;quot;Nunito Sans&amp;quot;, sans-serif; font-size: 14px; text-align: left; background-color: rgb(255, 255, 255);&quot;&gt;&lt;br&gt;&lt;/span&gt;" style="ellipse;whiteSpace=wrap;html=1;align=center;" vertex="1" parent="1">
                    <mxGeometry x="900" y="-365" width="100" height="40" as="geometry"/>
                </mxCell>
                <mxCell id="YmsS6SR4RIg1UxmrHryh-111" value="&amp;lt;&amp;lt;extend&amp;gt;&amp;gt;" style="html=1;verticalAlign=bottom;labelBackgroundColor=none;endArrow=open;endFill=0;dashed=1;fontSize=9;exitX=0;exitY=0.5;exitDx=0;exitDy=0;entryX=1;entryY=0.5;entryDx=0;entryDy=0;" edge="1" parent="1" source="YmsS6SR4RIg1UxmrHryh-42" target="YmsS6SR4RIg1UxmrHryh-39">
                    <mxGeometry x="-0.0022" y="5" width="160" relative="1" as="geometry">
                        <mxPoint x="830" y="-588" as="sourcePoint"/>
                        <mxPoint x="760" y="-553.4999999999999" as="targetPoint"/>
                        <mxPoint as="offset"/>
                    </mxGeometry>
                </mxCell>
                <mxCell id="YmsS6SR4RIg1UxmrHryh-112" value="&amp;lt;&amp;lt;extend&amp;gt;&amp;gt;" style="html=1;verticalAlign=bottom;labelBackgroundColor=none;endArrow=open;endFill=0;dashed=1;fontSize=9;exitX=0;exitY=0.5;exitDx=0;exitDy=0;entryX=1;entryY=0.5;entryDx=0;entryDy=0;" edge="1" parent="1" source="YmsS6SR4RIg1UxmrHryh-50" target="YmsS6SR4RIg1UxmrHryh-39">
                    <mxGeometry x="-0.0022" y="5" width="160" relative="1" as="geometry">
                        <mxPoint x="781.25" y="-720" as="sourcePoint"/>
                        <mxPoint x="710" y="-710" as="targetPoint"/>
                        <mxPoint as="offset"/>
                    </mxGeometry>
                </mxCell>
                <mxCell id="YmsS6SR4RIg1UxmrHryh-113" value="&amp;lt;&amp;lt;extend&amp;gt;&amp;gt;" style="html=1;verticalAlign=bottom;labelBackgroundColor=none;endArrow=open;endFill=0;dashed=1;fontSize=9;exitX=0;exitY=0.5;exitDx=0;exitDy=0;entryX=1;entryY=0.5;entryDx=0;entryDy=0;" edge="1" parent="1" source="YmsS6SR4RIg1UxmrHryh-43" target="YmsS6SR4RIg1UxmrHryh-56">
                    <mxGeometry x="-0.0022" y="5" width="160" relative="1" as="geometry">
                        <mxPoint x="791.25" y="-710" as="sourcePoint"/>
                        <mxPoint x="730" y="-690" as="targetPoint"/>
                        <mxPoint as="offset"/>
                    </mxGeometry>
                </mxCell>
                <mxCell id="YmsS6SR4RIg1UxmrHryh-114" value="&amp;lt;&amp;lt;extend&amp;gt;&amp;gt;" style="html=1;verticalAlign=bottom;labelBackgroundColor=none;endArrow=open;endFill=0;dashed=1;fontSize=9;exitX=0;exitY=0.5;exitDx=0;exitDy=0;entryX=1;entryY=0.5;entryDx=0;entryDy=0;" edge="1" parent="1" source="YmsS6SR4RIg1UxmrHryh-44" target="YmsS6SR4RIg1UxmrHryh-56">
                    <mxGeometry x="-0.0022" y="5" width="160" relative="1" as="geometry">
                        <mxPoint x="801.25" y="-700" as="sourcePoint"/>
                        <mxPoint x="740" y="-680" as="targetPoint"/>
                        <mxPoint as="offset"/>
                    </mxGeometry>
                </mxCell>
                <mxCell id="YmsS6SR4RIg1UxmrHryh-115" value="&amp;lt;&amp;lt;extend&amp;gt;&amp;gt;" style="html=1;verticalAlign=bottom;labelBackgroundColor=none;endArrow=open;endFill=0;dashed=1;fontSize=9;exitX=0;exitY=0.5;exitDx=0;exitDy=0;entryX=1;entryY=0.5;entryDx=0;entryDy=0;" edge="1" parent="1" source="YmsS6SR4RIg1UxmrHryh-49" target="YmsS6SR4RIg1UxmrHryh-56">
                    <mxGeometry x="-0.0022" y="5" width="160" relative="1" as="geometry">
                        <mxPoint x="809.9999999999989" y="-550" as="sourcePoint"/>
                        <mxPoint x="730.0000000000017" y="-550" as="targetPoint"/>
                        <mxPoint as="offset"/>
                    </mxGeometry>
                </mxCell>
                <mxCell id="YmsS6SR4RIg1UxmrHryh-116" value="&amp;lt;&amp;lt;extend&amp;gt;&amp;gt;" style="html=1;verticalAlign=bottom;labelBackgroundColor=none;endArrow=open;endFill=0;dashed=1;fontSize=9;exitX=0;exitY=0.5;exitDx=0;exitDy=0;entryX=1;entryY=0.5;entryDx=0;entryDy=0;" edge="1" parent="1" source="YmsS6SR4RIg1UxmrHryh-47" target="YmsS6SR4RIg1UxmrHryh-54">
                    <mxGeometry x="-0.0022" y="5" width="160" relative="1" as="geometry">
                        <mxPoint x="819.9999999999989" y="-540" as="sourcePoint"/>
                        <mxPoint x="740.0000000000017" y="-540" as="targetPoint"/>
                        <mxPoint as="offset"/>
                    </mxGeometry>
                </mxCell>
                <mxCell id="YmsS6SR4RIg1UxmrHryh-117" value="&amp;lt;&amp;lt;extend&amp;gt;&amp;gt;" style="html=1;verticalAlign=bottom;labelBackgroundColor=none;endArrow=open;endFill=0;dashed=1;fontSize=9;exitX=0;exitY=0.5;exitDx=0;exitDy=0;entryX=1;entryY=0.5;entryDx=0;entryDy=0;" edge="1" parent="1" source="YmsS6SR4RIg1UxmrHryh-46" target="YmsS6SR4RIg1UxmrHryh-54">
                    <mxGeometry x="-0.0022" y="5" width="160" relative="1" as="geometry">
                        <mxPoint x="810" y="-420" as="sourcePoint"/>
                        <mxPoint x="720" y="-400" as="targetPoint"/>
                        <mxPoint as="offset"/>
                    </mxGeometry>
                </mxCell>
                <mxCell id="YmsS6SR4RIg1UxmrHryh-120" value="&amp;lt;&amp;lt;extend&amp;gt;&amp;gt;" style="html=1;verticalAlign=bottom;labelBackgroundColor=none;endArrow=open;endFill=0;dashed=1;fontSize=9;exitX=0;exitY=0.5;exitDx=0;exitDy=0;entryX=1;entryY=0.5;entryDx=0;entryDy=0;" edge="1" parent="1" source="YmsS6SR4RIg1UxmrHryh-93" target="YmsS6SR4RIg1UxmrHryh-92">
                    <mxGeometry x="-0.0022" y="5" width="160" relative="1" as="geometry">
                        <mxPoint x="820" y="-410" as="sourcePoint"/>
                        <mxPoint x="740.0000000000017" y="-380" as="targetPoint"/>
                        <mxPoint as="offset"/>
                    </mxGeometry>
                </mxCell>
                <mxCell id="YmsS6SR4RIg1UxmrHryh-121" value="&amp;lt;&amp;lt;extend&amp;gt;&amp;gt;" style="html=1;verticalAlign=bottom;labelBackgroundColor=none;endArrow=open;endFill=0;dashed=1;fontSize=9;exitX=0;exitY=0.5;exitDx=0;exitDy=0;entryX=1;entryY=0.5;entryDx=0;entryDy=0;" edge="1" parent="1" source="YmsS6SR4RIg1UxmrHryh-94" target="YmsS6SR4RIg1UxmrHryh-92">
                    <mxGeometry x="-0.0022" y="5" width="160" relative="1" as="geometry">
                        <mxPoint x="801.25" y="-140" as="sourcePoint"/>
                        <mxPoint x="755" y="-130" as="targetPoint"/>
                        <mxPoint as="offset"/>
                    </mxGeometry>
                </mxCell>
                <mxCell id="YmsS6SR4RIg1UxmrHryh-122" value="&amp;lt;&amp;lt;extend&amp;gt;&amp;gt;" style="html=1;verticalAlign=bottom;labelBackgroundColor=none;endArrow=open;endFill=0;dashed=1;fontSize=9;exitX=0;exitY=0.5;exitDx=0;exitDy=0;entryX=1;entryY=0.5;entryDx=0;entryDy=0;" edge="1" parent="1" source="YmsS6SR4RIg1UxmrHryh-63" target="YmsS6SR4RIg1UxmrHryh-61">
                    <mxGeometry x="-0.0022" y="5" width="160" relative="1" as="geometry">
                        <mxPoint x="811.25" y="-130" as="sourcePoint"/>
                        <mxPoint x="765" y="-120" as="targetPoint"/>
                        <mxPoint as="offset"/>
                    </mxGeometry>
                </mxCell>
                <mxCell id="YmsS6SR4RIg1UxmrHryh-123" value="&amp;lt;&amp;lt;extend&amp;gt;&amp;gt;" style="html=1;verticalAlign=bottom;labelBackgroundColor=none;endArrow=open;endFill=0;dashed=1;fontSize=9;exitX=0;exitY=0.5;exitDx=0;exitDy=0;entryX=1;entryY=0.5;entryDx=0;entryDy=0;" edge="1" parent="1" source="YmsS6SR4RIg1UxmrHryh-68" target="YmsS6SR4RIg1UxmrHryh-67">
                    <mxGeometry x="-0.0022" y="5" width="160" relative="1" as="geometry">
                        <mxPoint x="815" y="190" as="sourcePoint"/>
                        <mxPoint x="750" y="190" as="targetPoint"/>
                        <mxPoint as="offset"/>
                    </mxGeometry>
                </mxCell>
                <mxCell id="YmsS6SR4RIg1UxmrHryh-124" value="&amp;lt;&amp;lt;extend&amp;gt;&amp;gt;" style="html=1;verticalAlign=bottom;labelBackgroundColor=none;endArrow=open;endFill=0;dashed=1;fontSize=9;exitX=0;exitY=0.5;exitDx=0;exitDy=0;entryX=1;entryY=0.5;entryDx=0;entryDy=0;" edge="1" parent="1" source="YmsS6SR4RIg1UxmrHryh-69" target="YmsS6SR4RIg1UxmrHryh-67">
                    <mxGeometry x="-0.0022" y="5" width="160" relative="1" as="geometry">
                        <mxPoint x="817.5" y="260" as="sourcePoint"/>
                        <mxPoint x="750" y="280" as="targetPoint"/>
                        <mxPoint as="offset"/>
                    </mxGeometry>
                </mxCell>
                <mxCell id="YmsS6SR4RIg1UxmrHryh-125" value="&amp;lt;&amp;lt;extend&amp;gt;&amp;gt;" style="html=1;verticalAlign=bottom;labelBackgroundColor=none;endArrow=open;endFill=0;dashed=1;fontSize=9;exitX=0;exitY=0.5;exitDx=0;exitDy=0;entryX=1;entryY=0.5;entryDx=0;entryDy=0;" edge="1" parent="1" source="YmsS6SR4RIg1UxmrHryh-70" target="YmsS6SR4RIg1UxmrHryh-71">
                    <mxGeometry x="-0.0022" y="5" width="160" relative="1" as="geometry">
                        <mxPoint x="827.5" y="270" as="sourcePoint"/>
                        <mxPoint x="760" y="290" as="targetPoint"/>
                        <mxPoint as="offset"/>
                    </mxGeometry>
                </mxCell>
                <mxCell id="YmsS6SR4RIg1UxmrHryh-126" value="&amp;lt;&amp;lt;extend&amp;gt;&amp;gt;" style="html=1;verticalAlign=bottom;labelBackgroundColor=none;endArrow=open;endFill=0;dashed=1;fontSize=9;exitX=0;exitY=0.5;exitDx=0;exitDy=0;entryX=1;entryY=0.5;entryDx=0;entryDy=0;" edge="1" parent="1" source="YmsS6SR4RIg1UxmrHryh-73" target="YmsS6SR4RIg1UxmrHryh-72">
                    <mxGeometry x="-0.0022" y="5" width="160" relative="1" as="geometry">
                        <mxPoint x="815" y="380" as="sourcePoint"/>
                        <mxPoint x="750" y="380" as="targetPoint"/>
                        <mxPoint as="offset"/>
                    </mxGeometry>
                </mxCell>
                <mxCell id="YmsS6SR4RIg1UxmrHryh-127" value="&amp;lt;&amp;lt;extend&amp;gt;&amp;gt;" style="html=1;verticalAlign=bottom;labelBackgroundColor=none;endArrow=open;endFill=0;dashed=1;fontSize=9;exitX=0;exitY=0.5;exitDx=0;exitDy=0;entryX=1;entryY=0.5;entryDx=0;entryDy=0;" edge="1" parent="1" source="YmsS6SR4RIg1UxmrHryh-74" target="YmsS6SR4RIg1UxmrHryh-72">
                    <mxGeometry x="-0.0022" y="5" width="160" relative="1" as="geometry">
                        <mxPoint x="822.5" y="440" as="sourcePoint"/>
                        <mxPoint x="755" y="470" as="targetPoint"/>
                        <mxPoint as="offset"/>
                    </mxGeometry>
                </mxCell>
                <mxCell id="YmsS6SR4RIg1UxmrHryh-128" value="&amp;lt;&amp;lt;extend&amp;gt;&amp;gt;" style="html=1;verticalAlign=bottom;labelBackgroundColor=none;endArrow=open;endFill=0;dashed=1;fontSize=9;exitX=0;exitY=0.5;exitDx=0;exitDy=0;entryX=1;entryY=0.5;entryDx=0;entryDy=0;" edge="1" parent="1" source="YmsS6SR4RIg1UxmrHryh-75" target="YmsS6SR4RIg1UxmrHryh-72">
                    <mxGeometry x="-0.0022" y="5" width="160" relative="1" as="geometry">
                        <mxPoint x="821.25" y="490" as="sourcePoint"/>
                        <mxPoint x="755" y="470" as="targetPoint"/>
                        <mxPoint as="offset"/>
                    </mxGeometry>
                </mxCell>
                <mxCell id="YmsS6SR4RIg1UxmrHryh-131" value="&amp;lt;&amp;lt;extend&amp;gt;&amp;gt;" style="html=1;verticalAlign=bottom;labelBackgroundColor=none;endArrow=open;endFill=0;dashed=1;fontSize=9;exitX=0;exitY=0.5;exitDx=0;exitDy=0;entryX=1;entryY=0.5;entryDx=0;entryDy=0;" edge="1" parent="1" source="YmsS6SR4RIg1UxmrHryh-82" target="YmsS6SR4RIg1UxmrHryh-81">
                    <mxGeometry x="-0.0022" y="5" width="160" relative="1" as="geometry">
                        <mxPoint x="826.25" y="600" as="sourcePoint"/>
                        <mxPoint x="758.75" y="630" as="targetPoint"/>
                        <mxPoint as="offset"/>
                    </mxGeometry>
                </mxCell>
                <mxCell id="YmsS6SR4RIg1UxmrHryh-132" value="&amp;lt;&amp;lt;extend&amp;gt;&amp;gt;" style="html=1;verticalAlign=bottom;labelBackgroundColor=none;endArrow=open;endFill=0;dashed=1;fontSize=9;exitX=0;exitY=0.5;exitDx=0;exitDy=0;entryX=1;entryY=0.5;entryDx=0;entryDy=0;" edge="1" parent="1" source="YmsS6SR4RIg1UxmrHryh-83" target="YmsS6SR4RIg1UxmrHryh-81">
                    <mxGeometry x="-0.0022" y="5" width="160" relative="1" as="geometry">
                        <mxPoint x="825" y="650" as="sourcePoint"/>
                        <mxPoint x="759" y="630" as="targetPoint"/>
                        <mxPoint as="offset"/>
                    </mxGeometry>
                </mxCell>
                <mxCell id="YmsS6SR4RIg1UxmrHryh-133" value="&amp;lt;&amp;lt;extend&amp;gt;&amp;gt;" style="html=1;verticalAlign=bottom;labelBackgroundColor=none;endArrow=open;endFill=0;dashed=1;fontSize=9;exitX=0;exitY=0.5;exitDx=0;exitDy=0;entryX=1;entryY=0.5;entryDx=0;entryDy=0;" edge="1" parent="1" source="YmsS6SR4RIg1UxmrHryh-84" target="YmsS6SR4RIg1UxmrHryh-81">
                    <mxGeometry x="-0.0022" y="5" width="160" relative="1" as="geometry">
                        <mxPoint x="826.25" y="700" as="sourcePoint"/>
                        <mxPoint x="758.75" y="630" as="targetPoint"/>
                        <mxPoint as="offset"/>
                    </mxGeometry>
                </mxCell>
                <mxCell id="YmsS6SR4RIg1UxmrHryh-136" value="&amp;lt;&amp;lt;include&amp;gt;&amp;gt;" style="html=1;verticalAlign=bottom;labelBackgroundColor=none;endArrow=open;endFill=0;dashed=1;fontSize=9;exitX=0.5;exitY=1;exitDx=0;exitDy=0;entryX=0.5;entryY=0;entryDx=0;entryDy=0;edgeStyle=orthogonalEdgeStyle;" edge="1" parent="1" source="YmsS6SR4RIg1UxmrHryh-39" target="YmsS6SR4RIg1UxmrHryh-38">
                    <mxGeometry x="-0.1784" width="160" relative="1" as="geometry">
                        <mxPoint x="664.22" y="-629.3" as="sourcePoint"/>
                        <mxPoint x="975.78" y="-900" as="targetPoint"/>
                        <mxPoint x="-1" as="offset"/>
                        <Array as="points">
                            <mxPoint x="660" y="-640"/>
                            <mxPoint x="1085" y="-640"/>
                        </Array>
                    </mxGeometry>
                </mxCell>
                <mxCell id="YmsS6SR4RIg1UxmrHryh-137" value="&amp;lt;&amp;lt;include&amp;gt;&amp;gt;" style="html=1;verticalAlign=bottom;labelBackgroundColor=none;endArrow=open;endFill=0;dashed=1;fontSize=9;exitX=0.5;exitY=1;exitDx=0;exitDy=0;entryX=0.579;entryY=0.007;entryDx=0;entryDy=0;edgeStyle=orthogonalEdgeStyle;entryPerimeter=0;" edge="1" parent="1" source="YmsS6SR4RIg1UxmrHryh-56" target="YmsS6SR4RIg1UxmrHryh-38">
                    <mxGeometry x="-0.1784" width="160" relative="1" as="geometry">
                        <mxPoint x="670" y="-680" as="sourcePoint"/>
                        <mxPoint x="1095" y="-260" as="targetPoint"/>
                        <mxPoint x="-1" as="offset"/>
                        <Array as="points">
                            <mxPoint x="670" y="-480"/>
                            <mxPoint x="1096" y="-480"/>
                            <mxPoint x="1096" y="-340"/>
                        </Array>
                    </mxGeometry>
                </mxCell>
                <mxCell id="YmsS6SR4RIg1UxmrHryh-138" value="&amp;lt;&amp;lt;include&amp;gt;&amp;gt;" style="html=1;verticalAlign=bottom;labelBackgroundColor=none;endArrow=open;endFill=0;dashed=1;fontSize=9;exitX=0.5;exitY=1;exitDx=0;exitDy=0;entryX=0;entryY=0.5;entryDx=0;entryDy=0;edgeStyle=orthogonalEdgeStyle;" edge="1" parent="1" source="YmsS6SR4RIg1UxmrHryh-54" target="YmsS6SR4RIg1UxmrHryh-38">
                    <mxGeometry x="-0.1784" width="160" relative="1" as="geometry">
                        <mxPoint x="680" y="-530" as="sourcePoint"/>
                        <mxPoint x="1105.665" y="-259.72" as="targetPoint"/>
                        <mxPoint x="-1" as="offset"/>
                        <Array as="points">
                            <mxPoint x="660" y="-250"/>
                        </Array>
                    </mxGeometry>
                </mxCell>
                <mxCell id="YmsS6SR4RIg1UxmrHryh-139" value="&amp;lt;&amp;lt;include&amp;gt;&amp;gt;" style="html=1;verticalAlign=bottom;labelBackgroundColor=none;endArrow=open;endFill=0;dashed=1;fontSize=9;exitX=0.5;exitY=0;exitDx=0;exitDy=0;entryX=0;entryY=1;entryDx=0;entryDy=0;edgeStyle=orthogonalEdgeStyle;" edge="1" parent="1" source="YmsS6SR4RIg1UxmrHryh-92" target="YmsS6SR4RIg1UxmrHryh-38">
                    <mxGeometry x="-0.1784" width="160" relative="1" as="geometry">
                        <mxPoint x="780" y="-260" as="sourcePoint"/>
                        <mxPoint x="1137.5" y="-130" as="targetPoint"/>
                        <mxPoint x="-1" as="offset"/>
                        <Array as="points">
                            <mxPoint x="680" y="-230"/>
                            <mxPoint x="1037" y="-230"/>
                        </Array>
                    </mxGeometry>
                </mxCell>
                <mxCell id="YmsS6SR4RIg1UxmrHryh-140" value="&amp;lt;&amp;lt;include&amp;gt;&amp;gt;" style="html=1;verticalAlign=bottom;labelBackgroundColor=none;endArrow=open;endFill=0;dashed=1;fontSize=9;exitX=1;exitY=0.5;exitDx=0;exitDy=0;edgeStyle=orthogonalEdgeStyle;entryX=0.608;entryY=0.962;entryDx=0;entryDy=0;entryPerimeter=0;" edge="1" parent="1" source="YmsS6SR4RIg1UxmrHryh-95" target="YmsS6SR4RIg1UxmrHryh-38">
                    <mxGeometry x="-0.1784" width="160" relative="1" as="geometry">
                        <mxPoint x="690.0000000000002" y="-150" as="sourcePoint"/>
                        <mxPoint x="1100" y="-230" as="targetPoint"/>
                        <mxPoint x="-1" as="offset"/>
                        <Array as="points">
                            <mxPoint x="1100" y="-30"/>
                            <mxPoint x="1100" y="-230"/>
                        </Array>
                    </mxGeometry>
                </mxCell>
                <mxCell id="YmsS6SR4RIg1UxmrHryh-141" value="&amp;lt;&amp;lt;include&amp;gt;&amp;gt;" style="html=1;verticalAlign=bottom;labelBackgroundColor=none;endArrow=open;endFill=0;dashed=1;fontSize=9;exitX=0.5;exitY=0;exitDx=0;exitDy=0;edgeStyle=orthogonalEdgeStyle;entryX=1;entryY=1;entryDx=0;entryDy=0;" edge="1" parent="1" source="YmsS6SR4RIg1UxmrHryh-61" target="YmsS6SR4RIg1UxmrHryh-38">
                    <mxGeometry x="-0.1784" width="160" relative="1" as="geometry">
                        <mxPoint x="735.0000000000002" y="-20" as="sourcePoint"/>
                        <mxPoint x="1109.58" y="-221.51999999999998" as="targetPoint"/>
                        <mxPoint x="-1" as="offset"/>
                        <Array as="points">
                            <mxPoint x="675" y="130"/>
                            <mxPoint x="1133" y="130"/>
                        </Array>
                    </mxGeometry>
                </mxCell>
                <mxCell id="YmsS6SR4RIg1UxmrHryh-144" value="&amp;lt;&amp;lt;include&amp;gt;&amp;gt;" style="html=1;verticalAlign=bottom;labelBackgroundColor=none;endArrow=open;endFill=0;dashed=1;fontSize=9;exitX=0.5;exitY=0;exitDx=0;exitDy=0;edgeStyle=orthogonalEdgeStyle;entryX=1;entryY=0.5;entryDx=0;entryDy=0;" edge="1" parent="1" source="YmsS6SR4RIg1UxmrHryh-67" target="YmsS6SR4RIg1UxmrHryh-38">
                    <mxGeometry x="-0.1784" width="160" relative="1" as="geometry">
                        <mxPoint x="694.8999999999997" y="235.82" as="sourcePoint"/>
                        <mxPoint x="1152.5029362672544" y="-160.0004019629452" as="targetPoint"/>
                        <mxPoint x="-1" as="offset"/>
                        <Array as="points">
                            <mxPoint x="675" y="206"/>
                            <mxPoint x="1149" y="206"/>
                            <mxPoint x="1149" y="-241"/>
                            <mxPoint x="1153" y="-241"/>
                        </Array>
                    </mxGeometry>
                </mxCell>
                <mxCell id="YmsS6SR4RIg1UxmrHryh-146" value="&amp;lt;&amp;lt;include&amp;gt;&amp;gt;" style="html=1;verticalAlign=bottom;labelBackgroundColor=none;endArrow=open;endFill=0;dashed=1;fontSize=9;exitX=0.5;exitY=0;exitDx=0;exitDy=0;edgeStyle=orthogonalEdgeStyle;entryX=0.714;entryY=0.985;entryDx=0;entryDy=0;entryPerimeter=0;" edge="1" parent="1" source="YmsS6SR4RIg1UxmrHryh-71" target="YmsS6SR4RIg1UxmrHryh-38">
                    <mxGeometry x="-0.1784" width="160" relative="1" as="geometry">
                        <mxPoint x="685" y="260" as="sourcePoint"/>
                        <mxPoint x="1162.5" y="-240" as="targetPoint"/>
                        <mxPoint x="-1" as="offset"/>
                        <Array as="points">
                            <mxPoint x="675" y="330"/>
                            <mxPoint x="1114" y="330"/>
                        </Array>
                    </mxGeometry>
                </mxCell>
                <mxCell id="YmsS6SR4RIg1UxmrHryh-147" value="&amp;lt;&amp;lt;include&amp;gt;&amp;gt;" style="html=1;verticalAlign=bottom;labelBackgroundColor=none;endArrow=open;endFill=0;dashed=1;fontSize=9;exitX=0.5;exitY=0;exitDx=0;exitDy=0;edgeStyle=orthogonalEdgeStyle;entryX=0.5;entryY=1;entryDx=0;entryDy=0;" edge="1" parent="1" source="YmsS6SR4RIg1UxmrHryh-72" target="YmsS6SR4RIg1UxmrHryh-38">
                    <mxGeometry x="-0.1784" width="160" relative="1" as="geometry">
                        <mxPoint x="685" y="360" as="sourcePoint"/>
                        <mxPoint x="1123.8899999999999" y="-220.5999999999999" as="targetPoint"/>
                        <mxPoint x="-1" as="offset"/>
                        <Array as="points">
                            <mxPoint x="680" y="400"/>
                            <mxPoint x="1085" y="400"/>
                        </Array>
                    </mxGeometry>
                </mxCell>
                <mxCell id="YmsS6SR4RIg1UxmrHryh-148" value="&amp;lt;&amp;lt;include&amp;gt;&amp;gt;" style="html=1;verticalAlign=bottom;labelBackgroundColor=none;endArrow=open;endFill=0;dashed=1;fontSize=9;exitX=0.5;exitY=0;exitDx=0;exitDy=0;edgeStyle=orthogonalEdgeStyle;entryX=0.386;entryY=1.004;entryDx=0;entryDy=0;entryPerimeter=0;" edge="1" parent="1" source="YmsS6SR4RIg1UxmrHryh-81" target="YmsS6SR4RIg1UxmrHryh-38">
                    <mxGeometry x="-0.1784" width="160" relative="1" as="geometry">
                        <mxPoint x="690" y="450" as="sourcePoint"/>
                        <mxPoint x="1095" y="-220" as="targetPoint"/>
                        <mxPoint x="-1" as="offset"/>
                        <Array as="points">
                            <mxPoint x="675" y="570"/>
                            <mxPoint x="1070" y="570"/>
                        </Array>
                    </mxGeometry>
                </mxCell>
                <mxCell id="YmsS6SR4RIg1UxmrHryh-149" value="" style="html=1;verticalAlign=bottom;labelBackgroundColor=none;endArrow=block;endFill=0;fontSize=9;exitX=0;exitY=0.5;exitDx=0;exitDy=0;entryX=1;entryY=0.5;entryDx=0;entryDy=0;" edge="1" parent="1" source="YmsS6SR4RIg1UxmrHryh-109" target="YmsS6SR4RIg1UxmrHryh-46">
                    <mxGeometry x="-0.0022" y="5" width="160" relative="1" as="geometry">
                        <mxPoint x="905" y="-360" as="sourcePoint"/>
                        <mxPoint x="855" y="-330" as="targetPoint"/>
                        <mxPoint as="offset"/>
                    </mxGeometry>
                </mxCell>
                <mxCell id="YmsS6SR4RIg1UxmrHryh-150" value="" style="html=1;verticalAlign=bottom;labelBackgroundColor=none;endArrow=block;endFill=0;fontSize=9;exitX=0;exitY=0.5;exitDx=0;exitDy=0;entryX=1;entryY=0.5;entryDx=0;entryDy=0;" edge="1" parent="1" source="YmsS6SR4RIg1UxmrHryh-108" target="YmsS6SR4RIg1UxmrHryh-46">
                    <mxGeometry x="-0.0022" y="5" width="160" relative="1" as="geometry">
                        <mxPoint x="910" y="-335" as="sourcePoint"/>
                        <mxPoint x="880.0000000000025" y="-360" as="targetPoint"/>
                        <mxPoint as="offset"/>
                    </mxGeometry>
                </mxCell>
            </root>
        </mxGraphModel>
    </diagram>
</mxfile>